<?xml version="1.0" encoding="utf-8"?>
<!-- Generator: Adobe Illustrator 26.5.0, SVG Export Plug-In . SVG Version: 6.00 Build 0)  -->
<svg version="1.1" id="Capa_1" xmlns="http://www.w3.org/2000/svg" xmlns:xlink="http://www.w3.org/1999/xlink" x="0px" y="0px"
	 viewBox="0 0 32.63 28.85" style="enable-background:new 0 0 32.63 28.85;" xml:space="preserve">
<g>
	<path d="M32.63,10.11c-0.09,0.54-0.16,1.09-0.28,1.63c-0.41,1.77-1.27,3.32-2.36,4.75c-1.52,2.01-3.34,3.73-5.24,5.38
		c-2.56,2.23-5.14,4.45-7.71,6.67c-0.47,0.4-0.95,0.44-1.38,0.07c-3.22-2.8-6.46-5.59-9.64-8.43c-1.54-1.37-2.93-2.9-4.06-4.64
		c-1.43-2.19-2.19-4.56-1.9-7.2c0.29-2.63,1.36-4.87,3.47-6.54c1.74-1.37,3.74-1.92,5.93-1.72c2.68,0.25,4.62,1.72,6.12,3.86
		c0.26,0.36,0.48,0.75,0.74,1.17c0.1-0.17,0.18-0.31,0.26-0.45c0.96-1.61,2.19-2.95,3.88-3.8c2.05-1.02,4.18-1.1,6.3-0.33
		c3.09,1.13,4.84,3.46,5.59,6.59c0.13,0.52,0.18,1.06,0.27,1.59C32.63,9.17,32.63,9.64,32.63,10.11z M16.29,26.62
		c0.06-0.04,0.09-0.05,0.12-0.07c2.89-2.52,5.81-5.01,8.67-7.56c1.67-1.49,3.19-3.12,4.34-5.06c1.16-1.97,1.62-4.08,1.11-6.33
		c-0.56-2.5-1.92-4.39-4.4-5.28C24.4,1.7,22.7,1.79,21.08,2.7c-1.36,0.76-2.31,1.91-3.03,3.27c-0.33,0.62-0.57,1.28-0.86,1.91
		c-0.17,0.37-0.46,0.58-0.87,0.58c-0.41,0-0.7-0.2-0.88-0.57c-0.06-0.12-0.1-0.26-0.15-0.39c-0.58-1.49-1.36-2.85-2.55-3.95
		c-2.57-2.37-6.36-2.03-8.53,0.18C1.82,6.17,1.37,9.1,2.44,12.28C3,13.92,4,15.33,5.19,16.57c1.31,1.37,2.67,2.71,4.08,3.98
		C11.58,22.6,13.94,24.59,16.29,26.62z"/>
</g>
</svg>
