<?xml version="1.0" encoding="utf-8"?>
<!-- Generator: Adobe Illustrator 26.5.0, SVG Export Plug-In . SVG Version: 6.00 Build 0)  -->
<svg version="1.1" id="Capa_1" xmlns="http://www.w3.org/2000/svg" xmlns:xlink="http://www.w3.org/1999/xlink" x="0px" y="0px"
	 viewBox="0 0 24.6 29.44" style="enable-background:new 0 0 24.6 29.44;" xml:space="preserve">
<g>
	<g>
		<path d="M0.51,29.44C0.12,29.27,0,28.95,0,28.54c0.01-6.52,0-13.05,0-19.57c0-0.66,0.24-0.9,0.9-0.9c0.93,0,1.86,0,2.79,0
			c0.1,0,0.2,0,0.34,0c0-0.15,0-0.26,0-0.37c0.01-1.01-0.02-2.01,0.04-3.02c0.18-2.84,2.89-5.02,5.7-4.64
			c0.85,0.11,1.63,0.4,2.33,0.9c0.14,0.1,0.23,0.11,0.38,0.01c3.05-2.09,7.09-0.52,7.95,3.08c0.1,0.41,0.12,0.85,0.13,1.28
			c0.02,0.8,0.01,1.61,0.01,2.41c0,0.1,0,0.21,0,0.34c0.13,0.01,0.23,0.01,0.33,0.01c0.94,0,1.88,0,2.82,0
			c0.64,0,0.88,0.25,0.88,0.89c0,6.51,0,13.03,0.01,19.54c0,0.41-0.1,0.72-0.46,0.94C16.27,29.44,8.39,29.44,0.51,29.44z M1.35,9.42
			c0,6.23,0,12.44,0,18.66c5.22,0,10.42,0,15.63,0c0-6.23,0-12.44,0-18.66C11.77,9.42,6.57,9.42,1.35,9.42z M23.25,27.27
			c0-5.99,0-11.91,0-17.84c-0.6,0-1.18,0-1.79,0c0,0.12,0,0.22,0,0.33c0,0.89,0,1.78,0,2.67c0,0.15,0,0.31-0.02,0.46
			c-0.04,0.3-0.3,0.53-0.61,0.55c-0.29,0.02-0.58-0.19-0.66-0.49c-0.03-0.13-0.04-0.26-0.04-0.4c0-0.94,0-1.88,0-2.82
			c0-0.1,0-0.2,0-0.3c-0.62,0-1.2,0-1.77,0c0,5.94,0,11.86,0,17.82c0.54-0.48,1.04-0.94,1.56-1.38c0.16-0.14,0.22-0.28,0.22-0.49
			c-0.01-3.22-0.01-6.44,0-9.66c0-0.15,0.01-0.31,0.05-0.45c0.09-0.37,0.46-0.57,0.83-0.45c0.32,0.11,0.46,0.34,0.46,0.83
			c0,3.15,0.01,6.3-0.01,9.45c0,0.41,0.11,0.69,0.43,0.95C22.34,26.42,22.77,26.84,23.25,27.27z M11.34,2.04
			C9.31,0.51,6.18,1.6,5.53,4.07C5.19,5.37,5.37,6.71,5.4,8.05c1.62,0,3.24,0,4.89,0c0-0.81,0.02-1.59,0-2.37
			C10.25,4.35,10.51,3.13,11.34,2.04z M13.26,2.02c0.04,0.07,0.07,0.12,0.11,0.16c0.5,0.72,0.85,1.51,0.89,2.39
			c0.05,1.02,0.04,2.05,0.05,3.07c0,0.13,0,0.26,0,0.4c1.65,0,3.28,0,4.9,0c0.01-0.06,0.02-0.09,0.02-0.13
			c0-0.93,0.03-1.86-0.01-2.79c-0.06-1.73-1.03-3.07-2.6-3.59C15.44,1.14,14.32,1.33,13.26,2.02z M12.3,3
			c-0.37,0.56-0.61,1.12-0.63,1.75c-0.03,1.05-0.03,2.1-0.04,3.16c0,0.05,0.01,0.09,0.02,0.15c0.44,0,0.88,0,1.3,0
			c0-1.12,0.02-2.22-0.01-3.32C12.92,4.11,12.67,3.55,12.3,3z M19.43,28.08c0.93,0,1.8,0,2.73,0c-0.48-0.43-0.92-0.82-1.36-1.22
			C20.34,27.27,19.91,27.66,19.43,28.08z"/>
	</g>
</g>
</svg>
