<?xml version="1.0" encoding="utf-8"?>
<!-- Generator: Adobe Illustrator 26.5.0, SVG Export Plug-In . SVG Version: 6.00 Build 0)  -->
<svg version="1.1" id="Capa_1" xmlns="http://www.w3.org/2000/svg" xmlns:xlink="http://www.w3.org/1999/xlink" x="0px" y="0px"
	 viewBox="0 0 29.59 29.88" style="enable-background:new 0 0 29.59 29.88;" xml:space="preserve">
<path d="M29.53,27.4c-0.05-0.21-0.1-0.41-0.15-0.62c-0.14-0.58-0.28-1.17-0.5-1.74c-1.54-3.93-4.45-6.73-8.65-8.33
	c-0.43-0.16-0.87-0.29-1.3-0.41c-0.02-0.01-0.04-0.01-0.07-0.02c4.08-2.17,5.24-6.77,4.21-10.14c-1.09-3.6-4.47-6.12-8.21-6.15
	c-0.02,0-0.04,0-0.05,0c-3.78,0-7.09,2.43-8.25,6.06c-1.08,3.37,0.05,7.99,4.2,10.23c-1.97,0.52-3.68,1.33-5.21,2.48
	c-3.04,2.27-4.89,5.23-5.5,8.79c-0.1,0.56,0.05,1.07,0.42,1.53c0.45,0.54,1.07,0.8,1.89,0.8c6.64,0,13.28-0.01,19.92,0h5.04
	c0.08,0,0.17,0,0.25-0.01c0.69-0.05,1.3-0.38,1.67-0.9C29.55,28.5,29.67,27.93,29.53,27.4z M14.79,15.77
	C14.79,15.77,14.78,15.77,14.79,15.77c-3.94-0.01-7.14-3.21-7.14-7.14c0-1.91,0.75-3.7,2.1-5.05c1.35-1.34,3.14-2.08,5.04-2.08
	c0.01,0,0.01,0,0.02,0c3.93,0.01,7.12,3.22,7.11,7.15C21.92,12.58,18.72,15.77,14.79,15.77z M1.53,27.67
	c0.58-3.18,2.25-5.79,4.97-7.76c5.19-3.76,12.52-3.49,17.42,0.65c2.24,1.89,3.63,4.27,4.14,7.09c0.04,0.19,0.01,0.36-0.09,0.48
	c-0.09,0.13-0.24,0.21-0.44,0.23c-0.09,0.01-0.19,0.01-0.28,0.01l-0.09,0l-8.26,0l-16.54,0c-0.15,0-0.29,0-0.41-0.03
	C1.62,28.27,1.46,28.03,1.53,27.67z"/>
</svg>
