<?xml version="1.0" encoding="utf-8"?>
<!-- Generator: Adobe Illustrator 26.5.0, SVG Export Plug-In . SVG Version: 6.00 Build 0)  -->
<svg version="1.1" id="Capa_1" xmlns="http://www.w3.org/2000/svg" xmlns:xlink="http://www.w3.org/1999/xlink" x="0px" y="0px"
	 viewBox="0 0 28.36 28.4" style="enable-background:new 0 0 28.36 28.4;" xml:space="preserve">
<path d="M1.95,18.33c1.57,2.41,3.74,4.04,6.45,4.83c3.84,1.13,7.35,0.47,10.74-2l0.57-0.41l0.55,0.68c0.04,0.06,0.08,0.11,0.13,0.16
	l6.32,6.33c0.12,0.12,0.2,0.2,0.29,0.28c0.22,0.18,0.51,0.24,0.78,0.15c0.27-0.09,0.47-0.3,0.54-0.58c0.07-0.25,0.07-0.53-0.32-0.92
	l-6.7-6.6l-0.66-0.44l0.48-0.63c4.42-5.74,2.49-13.05-1.83-16.53C14.72-1.03,8.24-0.86,3.9,3.06C-0.44,6.97-1.26,13.39,1.95,18.33z
	 M11.8,1.66c0.02,0,0.04,0,0.06,0c5.59,0.03,10.13,4.6,10.12,10.19c-0.01,2.74-1.07,5.3-3.01,7.22c-1.91,1.9-4.44,2.94-7.12,2.94
	c-0.02,0-0.03,0-0.05,0C6.2,21.98,1.66,17.41,1.67,11.83c0-2.72,1.08-5.29,3.02-7.22C6.61,2.7,9.13,1.66,11.8,1.66z"/>
</svg>
