<?xml version="1.0" encoding="utf-8"?>
<!-- Generator: Adobe Illustrator 26.5.0, SVG Export Plug-In . SVG Version: 6.00 Build 0)  -->
<svg version="1.1" id="Capa_1" xmlns="http://www.w3.org/2000/svg" xmlns:xlink="http://www.w3.org/1999/xlink" x="0px" y="0px"
	 viewBox="0 0 35.69 35.69" style="enable-background:new 0 0 35.69 35.69;" xml:space="preserve">
<style type="text/css">
	.st0{fill:#947EC4;}
</style>
<g>
	<g>
		<g>
			<g>
				<path class="st0" d="M17.85,3.22c4.77,0,5.33,0.02,7.21,0.1c1.74,0.08,2.69,0.37,3.31,0.61c0.83,0.32,1.43,0.71,2.05,1.34
					c0.62,0.62,1.01,1.22,1.34,2.05C32,7.95,32.3,8.9,32.38,10.64c0.09,1.88,0.1,2.45,0.1,7.21s-0.02,5.33-0.1,7.21
					c-0.08,1.74-0.37,2.69-0.61,3.31c-0.32,0.83-0.71,1.43-1.34,2.05c-0.62,0.62-1.22,1.01-2.05,1.34
					c-0.63,0.24-1.57,0.54-3.31,0.61c-1.88,0.09-2.45,0.1-7.21,0.1c-4.77,0-5.33-0.02-7.21-0.1C8.9,32.3,7.95,32,7.32,31.76
					c-0.83-0.32-1.43-0.71-2.05-1.34c-0.62-0.62-1.01-1.22-1.34-2.05c-0.24-0.63-0.54-1.57-0.61-3.31c-0.09-1.88-0.1-2.45-0.1-7.21
					s0.02-5.33,0.1-7.21C3.4,8.9,3.69,7.95,3.93,7.32c0.32-0.83,0.71-1.43,1.34-2.05c0.62-0.62,1.22-1.01,2.05-1.34
					C7.95,3.69,8.9,3.4,10.64,3.32C12.52,3.23,13.08,3.22,17.85,3.22 M17.85,0C13,0,12.39,0.02,10.49,0.11
					c-1.9,0.09-3.2,0.39-4.33,0.83C4.98,1.39,3.99,2,3,3C2,3.99,1.39,4.98,0.94,6.16C0.5,7.29,0.19,8.59,0.11,10.49
					C0.02,12.39,0,13,0,17.85c0,4.85,0.02,5.45,0.11,7.36c0.09,1.9,0.39,3.2,0.83,4.33C1.39,30.71,2,31.71,3,32.7
					c0.99,0.99,1.99,1.6,3.16,2.06c1.14,0.44,2.43,0.74,4.33,0.83c1.9,0.09,2.51,0.11,7.36,0.11c4.85,0,5.45-0.02,7.36-0.11
					c1.9-0.09,3.2-0.39,4.33-0.83c1.17-0.46,2.17-1.07,3.16-2.06c0.99-0.99,1.6-1.99,2.06-3.16c0.44-1.14,0.74-2.43,0.83-4.33
					c0.09-1.9,0.11-2.51,0.11-7.36s-0.02-5.45-0.11-7.36c-0.09-1.9-0.39-3.2-0.83-4.33C34.3,4.98,33.69,3.99,32.7,3
					c-0.99-0.99-1.99-1.6-3.16-2.06c-1.14-0.44-2.43-0.74-4.33-0.83C23.3,0.02,22.69,0,17.85,0L17.85,0z"/>
				<path class="st0" d="M17.85,8.68c-5.06,0-9.16,4.1-9.16,9.16s4.1,9.16,9.16,9.16c5.06,0,9.16-4.1,9.16-9.16
					S22.91,8.68,17.85,8.68z M17.85,23.8c-3.29,0-5.95-2.66-5.95-5.95s2.66-5.95,5.95-5.95s5.95,2.66,5.95,5.95
					S21.13,23.8,17.85,23.8z"/>
				<circle class="st0" cx="27.37" cy="8.32" r="2.14"/>
			</g>
		</g>
	</g>
</g>
</svg>
