<?xml version="1.0" encoding="utf-8"?>
<!-- Generator: Adobe Illustrator 26.5.0, SVG Export Plug-In . SVG Version: 6.00 Build 0)  -->
<svg version="1.1" id="Capa_1" xmlns="http://www.w3.org/2000/svg" xmlns:xlink="http://www.w3.org/1999/xlink" x="0px" y="0px"
	 viewBox="0 0 23.38 15.71" style="enable-background:new 0 0 23.38 15.71;" xml:space="preserve">
<g>
	<g>
		<path d="M22.88,1H0.5C0.22,1,0,0.78,0,0.5S0.22,0,0.5,0h22.38c0.28,0,0.5,0.22,0.5,0.5S23.16,1,22.88,1z"/>
	</g>
	<g>
		<path d="M22.88,8.43H0.5C0.22,8.43,0,8.2,0,7.93s0.22-0.5,0.5-0.5h22.38c0.28,0,0.5,0.22,0.5,0.5S23.16,8.43,22.88,8.43z"/>
	</g>
	<g>
		<path d="M22.88,15.71H0.5c-0.28,0-0.5-0.22-0.5-0.5s0.22-0.5,0.5-0.5h22.38c0.28,0,0.5,0.22,0.5,0.5S23.16,15.71,22.88,15.71z"/>
	</g>
</g>
</svg>
