<?xml version="1.0" encoding="utf-8"?>
<!-- Generator: Adobe Illustrator 26.5.0, SVG Export Plug-In . SVG Version: 6.00 Build 0)  -->
<svg version="1.1" id="Capa_1" xmlns="http://www.w3.org/2000/svg" xmlns:xlink="http://www.w3.org/1999/xlink" x="0px" y="0px"
	 viewBox="0 0 31.92 36.52" style="enable-background:new 0 0 31.92 36.52;" xml:space="preserve">
<style type="text/css">
	.st0{fill:#947EC4;}
</style>
<g>
	<g>
		<path class="st0" d="M31.84,8.89c0-0.16,0-0.17-0.18-0.17c-0.42,0-0.83-0.05-1.23-0.11c-1.48-0.22-6.29-2.75-7.11-6.88
			c-0.02-0.08-0.2-1.1-0.2-1.54c0-0.2,0-0.2-0.2-0.2c-0.04,0-0.09,0-0.13,0c-1.88,0-3.77,0-5.65,0c-0.38,0-0.33-0.05-0.33,0.33
			c0,8.16,0,16.33,0,24.49c0,0.3-0.01,0.61-0.06,0.91c-0.28,1.58-1.09,2.82-2.46,3.66c-1.19,0.73-2.47,0.94-3.84,0.67
			c-0.43-0.09-0.84-0.25-1.24-0.41c-0.03-0.03-0.07-0.06-0.1-0.09c-0.14-0.11-0.29-0.21-0.43-0.31c-1.74-1.21-2.57-2.88-2.32-4.98
			c0.26-2.13,1.48-3.57,3.49-4.31c0.6-0.22,1.23-0.31,1.88-0.28c0.41,0.02,0.83,0.07,1.23,0.19c0.14,0.04,0.21-0.01,0.22-0.16
			c0-0.05,0-0.1,0-0.16c0-1.47-0.05-4.67-0.06-4.67c0-0.42,0-0.84,0.01-1.27c0-0.12-0.06-0.14-0.16-0.15
			c-0.76-0.09-1.52-0.11-2.28-0.05c-1.06,0.08-2.08,0.29-3.07,0.65c-1.59,0.57-2.98,1.45-4.18,2.63c-1.03,1.01-1.84,2.18-2.44,3.5
			c-0.57,1.26-0.9,2.58-0.99,3.96c-0.04,0.6-0.03,1.2,0.02,1.8c0.08,0.83,0.23,1.64,0.49,2.43c0.72,2.27,2.04,4.14,3.91,5.62
			c0.19,0.15,0.37,0.32,0.6,0.41c0,0,0,0,0,0c0.1,0.08,0.19,0.17,0.29,0.25c0.3,0.23,0.63,0.42,0.96,0.59
			c2.09,1.03,4.3,1.45,6.62,1.17c3.01-0.37,5.53-1.7,7.5-4c1.86-2.17,2.76-4.71,2.78-7.55c0.02-4.07,0.01-8.13,0.01-12.2
			c0-0.1-0.06-0.23,0.05-0.28c0.08-0.04,0.17,0.07,0.25,0.12c1.51,0.99,3.14,1.71,4.91,2.12c1.03,0.24,2.07,0.38,3.13,0.38
			c0.33,0,0.38-0.02,0.38-0.35C31.92,13.22,31.84,9.28,31.84,8.89z"/>
	</g>
</g>
</svg>
