<?xml version="1.0" encoding="utf-8"?>
<!-- Generator: Adobe Illustrator 26.5.0, SVG Export Plug-In . SVG Version: 6.00 Build 0)  -->
<svg version="1.1" id="Capa_1" xmlns="http://www.w3.org/2000/svg" xmlns:xlink="http://www.w3.org/1999/xlink" x="0px" y="0px"
	 viewBox="0 0 36.11 36.28" style="enable-background:new 0 0 36.11 36.28;" xml:space="preserve">
<style type="text/css">
	.st0{fill-rule:evenodd;clip-rule:evenodd;fill:#947EC4;}
</style>
<g>
	<g>
		<g>
			<g id="WA_Logo_00000081616224745756781720000003541939885250428585_">
				<g>
					<path class="st0" d="M30.85,5.27C27.46,1.87,22.94,0,18.13,0C8.22,0,0.15,8.06,0.15,17.98c0,3.17,0.83,6.26,2.4,8.99L0,36.28
						l9.53-2.5c2.63,1.43,5.58,2.19,8.59,2.19h0.01c0,0,0,0,0,0c9.91,0,17.98-8.06,17.98-17.98C36.12,13.19,34.25,8.67,30.85,5.27z
						 M18.13,32.93L18.13,32.93c-2.69,0-5.32-0.72-7.61-2.08l-0.55-0.32l-5.66,1.48l1.51-5.51l-0.36-0.57
						c-1.5-2.38-2.29-5.13-2.29-7.95c0-8.24,6.71-14.94,14.95-14.94c3.99,0,7.74,1.56,10.57,4.38c2.82,2.82,4.38,6.58,4.37,10.57
						C33.08,26.23,26.37,32.93,18.13,32.93z M26.33,21.74c-0.45-0.22-2.66-1.31-3.07-1.46c-0.41-0.15-0.71-0.22-1.01,0.22
						c-0.3,0.45-1.16,1.46-1.42,1.76s-0.52,0.34-0.97,0.11c-0.45-0.22-1.9-0.7-3.61-2.23c-1.34-1.19-2.24-2.66-2.5-3.11
						c-0.26-0.45-0.03-0.69,0.2-0.92c0.2-0.2,0.45-0.52,0.67-0.79c0.22-0.26,0.3-0.45,0.45-0.75c0.15-0.3,0.07-0.56-0.04-0.79
						c-0.11-0.22-1.01-2.44-1.39-3.33c-0.36-0.88-0.74-0.76-1.01-0.77c-0.26-0.01-0.56-0.02-0.86-0.02c-0.3,0-0.79,0.11-1.2,0.56
						C10.16,10.69,9,11.77,9,13.98s1.61,4.35,1.83,4.65c0.22,0.3,3.17,4.84,7.68,6.78c1.07,0.46,1.91,0.74,2.56,0.95
						c1.08,0.34,2.06,0.29,2.83,0.18c0.86-0.13,2.66-1.09,3.03-2.14c0.37-1.05,0.37-1.95,0.26-2.14
						C27.08,22.08,26.78,21.96,26.33,21.74z"/>
				</g>
			</g>
		</g>
	</g>
</g>
</svg>
