<?xml version="1.0" encoding="utf-8"?>
<!-- Generator: Adobe Illustrator 26.5.0, SVG Export Plug-In . SVG Version: 6.00 Build 0)  -->
<svg version="1.1" id="Capa_1" xmlns="http://www.w3.org/2000/svg" xmlns:xlink="http://www.w3.org/1999/xlink" x="0px" y="0px"
	 viewBox="0 0 37.79 26.46" style="enable-background:new 0 0 37.79 26.46;" xml:space="preserve">
<style type="text/css">
	.st0{fill:#947EC4;}
</style>
<g>
	<g>
		<path class="st0" d="M37,4.13c-0.43-1.63-1.72-2.91-3.34-3.34C30.72,0,18.9,0,18.9,0S7.08,0,4.13,0.79
			C2.51,1.22,1.22,2.51,0.79,4.13C0,7.08,0,13.23,0,13.23s0,6.15,0.79,9.1c0.43,1.63,1.72,2.91,3.34,3.34
			c2.95,0.79,14.77,0.79,14.77,0.79s11.82,0,14.77-0.79c1.63-0.43,2.91-1.72,3.34-3.34c0.79-2.95,0.79-9.1,0.79-9.1
			S37.79,7.08,37,4.13z M15.12,18.9V7.56l9.82,5.67L15.12,18.9z"/>
	</g>
</g>
</svg>
